<?xml version="1.0" encoding="utf-8"?>
<!-- Generator: Adobe Illustrator 16.2.1, SVG Export Plug-In . SVG Version: 6.00 Build 0)  -->
<svg version="1.2" baseProfile="tiny" id="Layer_1" xmlns="http://www.w3.org/2000/svg" xmlns:xlink="http://www.w3.org/1999/xlink"
	 x="0px" y="0px" width="512px" height="512px" viewBox="0 0 512 512" xml:space="preserve">
<path fill-rule="evenodd" fill="#F37246" d="M89.324-0.5h332.351c49.609,0,89.825,40.216,89.825,89.824v332.352
	c0,49.608-40.216,89.824-89.825,89.824H89.324C39.715,511.5-0.5,471.284-0.5,421.676V89.324C-0.5,39.716,39.715-0.5,89.324-0.5z"/>
<g>
	<path fill-rule="evenodd" fill="#FFFFFF" d="M418.425,171.325l-42.74-42.741c-4.166-4.166-10.92-4.166-15.085,0L214.697,274.487
		l-63.047-63.048c-4.166-4.166-10.919-4.166-15.085,0l-42.741,42.741c-4.166,4.165-4.166,10.919,0,15.085l110.623,110.623
		c0.627,0.627,1.318,1.148,2.045,1.587l0.891,0.891c4.166,4.166,10.919,4.166,15.085,0L418.425,186.41
		C422.591,182.245,422.591,175.491,418.425,171.325z"/>
</g>
</svg>
