<?xml version="1.0" encoding="utf-8"?>
<!-- Generator: Adobe Illustrator 16.2.1, SVG Export Plug-In . SVG Version: 6.00 Build 0)  -->
<svg version="1.2" baseProfile="tiny" id="Layer_1" xmlns="http://www.w3.org/2000/svg" xmlns:xlink="http://www.w3.org/1999/xlink"
	 x="0px" y="0px" width="514.863px" height="84.828px" viewBox="0 0 514.863 84.828" xml:space="preserve">
<path fill-rule="evenodd" fill="#FFFFFF" d="M510.146,48.277c1.607,0.62,3.65,1.901,4.501,4.889
	c0.461,1.625,0.145,2.972-0.569,4.159c-6.146,4.068-15.868,8.776-23.695,8.776c-9.258,0-11.87-4.9-11.87-9.258
	c0-3.268,1.309-8.604,1.309-11.217c0-2.175-0.762-3.702-3.374-3.702c-4.469,0-5.884,7.841-5.884,15.57v24.176c0,0-8.058,0-14.266,0
	c-4.341,0-7.773-2.433-9.148-5.771c-3.686,3.564-9.83,7.404-19.258,7.404c-7.189,0-12.414-4.245-15.465-10.018
	c-3.808,5.448-9.797,9.911-19.602,9.911c-8.911,0-15.371-4.056-19.574-9.787c-0.438,0.491-0.878,0.985-1.425,1.509
	c-5.339,5.228-10.891,8.385-20.258,8.385c-7.187,0-12.412-4.245-15.462-10.018c-3.704,5.448-9.691,9.911-19.493,9.911
	c-8.913,0-15.371-4.056-19.574-9.787c-0.442,0.491-0.881,0.985-1.428,1.509c-5.339,5.228-10.891,8.385-20.255,8.385
	c-7.189,0-12.414-4.245-15.464-10.018c-3.702,5.448-9.691,9.911-19.491,9.911c-9.349,0-16.002-4.46-20.178-10.635
	c-0.627,0.574-1.234,1.086-1.698,1.488c-5.337,4.684-15.247,9.253-29.947,9.253c-14.931,0-24.382-4.587-29.882-10.994
	c-2.089,2.215-5.118,4.045-7.563,5.331c-6.425,3.377-17.314,5.772-26.354,5.772c-11.325,0-13.612-5.332-13.612-9.798
	c0-1.523,0.218-2.832,0.545-3.924c1.306-4.896,2.939-9.579,2.939-19.381c0-2.939-1.306-6.205-5.444-6.205
	c-5.01,0-6.969,5.44-6.969,12.412v25.153H87.756c-5.143,0-9.016-3.415-9.687-7.711c-7.94,5.526-23.135,10.868-38.54,10.868
	C20.471,84.828,0,74.051,0,46.174C0,23.305,15.027,4.139,38.658,4.139c26.57,0,32.777,16.551,32.777,26.136
	c0,6.534-5.118,14.155-12.741,14.155c-5.553,0-13.502-2.287-13.502-11.978c0-6.208,3.92-7.296,3.92-10.891
	c0-3.157-1.634-6.096-7.405-6.096c-8.495,0-11.979,10.018-11.979,28.641c0,16.769,11.216,26.783,25.154,26.783
	c6.649,0,16.022-1.881,23.072-7.29V0H91.24c6.206,0,10.999,5.01,10.999,11.217v23.412c5.662-5.01,15.136-9.473,20.69-9.473
	c12.087,0,17.968,4.575,17.968,13.394c0,0.436,0,0.98,0,1.416c-0.762,10.565-1.961,16.223-3.049,23.083
	c-0.109,0.982-0.327,1.855-0.327,2.618c0,2.065,0.871,3.483,4.573,3.483c3.607,0,7.668-1.431,11.98-4.722
	c-1.214-3.291-1.758-6.736-1.758-10.088c0-13.505,10.345-28.858,31.688-28.858c21.235,0,25.917,12.741,25.917,18.947
	c0,12.956-13.72,19.492-27.66,22.435c2.723,2.827,7.08,4.792,13.286,4.792c7.602,0,15.128-2.742,20.903-6.972
	c-1.099-3.436-1.641-7.025-1.641-10.453c0-13.831,8.495-28.423,26.354-28.423c6.751,0,11.978,2.831,15.789,6.861V10.455
	C256.952,4.248,260.871,0,267.296,0h10.346v60.874c0,6.205,1.092,10.347,4.898,10.347c3.52,0,7.393-2.779,10.425-5.609
	c-1.306-3.714-1.943-7.643-1.943-11.38c0-13.831,8.498-28.423,26.355-28.423c6.749,0,11.977,2.831,15.786,6.861V10.455
	C333.164,4.248,337.088,0,343.51,0h10.347v60.874c0,6.205,1.086,10.347,4.898,10.347c3.514,0,7.392-2.779,10.425-5.609
	c-1.307-3.714-1.944-7.643-1.944-11.38c0-13.831,8.493-28.423,26.354-28.423c7.296,0,12.63,3.266,16.439,7.731
	c1.42-3.921,4.795-6.316,9.696-6.316h10.344v33.65c0,6.205,1.088,10.347,5.442,10.347c3.79,0,7.841-3.331,10.989-6.554V27.224
	h14.592c2.719,0,6.86,3.05,8.6,7.296c3.048-4.79,10.889-9.038,18.075-9.038c8.063,0,15.25,3.048,15.25,11.87
	c0,3.701-0.984,10.236-0.984,12.193c0,1.312,0.326,2.073,1.42,2.288C505.349,51.282,507.693,49.974,510.146,48.277z M191.954,48.46
	c0-3.269-2.395-6.317-5.553-6.317c-6.534,0-8.604,6.532-8.604,12.089c0,1.742,0.218,3.377,0.544,5.119
	C187.271,58.153,191.954,53.361,191.954,48.46z M247.588,42.36c-5.01,0-7.405,3.158-7.405,12.851c0,9.035,2.504,13.939,7.405,13.939
	c4.791,0,7.514-4.904,7.514-13.939C255.102,45.738,252.161,42.36,247.588,42.36z M323.799,42.36c-5.01,0-7.406,3.158-7.406,12.851
	c0,9.035,2.506,13.939,7.406,13.939c4.79,0,7.514-4.904,7.514-13.939C331.313,45.738,328.372,42.36,323.799,42.36z M400.012,42.36
	c-5.011,0-7.405,3.158-7.405,12.851c0,9.035,2.506,13.939,7.405,13.939c4.794,0,7.519-4.904,7.519-13.939
	C407.531,45.738,404.586,42.36,400.012,42.36z"/>
</svg>
