<?xml version="1.0" encoding="utf-8"?>
<!-- Generator: Adobe Illustrator 16.2.1, SVG Export Plug-In . SVG Version: 6.00 Build 0)  -->
<svg version="1.2" baseProfile="tiny" id="Layer_1" xmlns="http://www.w3.org/2000/svg" xmlns:xlink="http://www.w3.org/1999/xlink"
	 x="0px" y="0px" width="645.156px" height="194px" viewBox="0 0 645.156 194" xml:space="preserve">
<g>
	<path fill="#FFFFFF" d="M256.76,88.867V35.464h15.401v5.8c3.2-4.1,8.701-7,15.301-7c11.4,0,17.601,8.401,17.601,19.102v35.502
		h-15.401V56.865c0-4.6-1.5-9-7.701-9c-5.5,0-9.801,3.7-9.801,10.601v30.402H256.76z"/>
	<path fill="#FFFFFF" d="M338.061,90.067c-16.801,0-27.702-11.201-27.702-27.802c0-16.701,10.9-28.002,27.702-28.002
		c16.901,0,27.702,11.301,27.702,28.002C365.762,78.867,354.961,90.067,338.061,90.067z M338.061,47.064
		c-7.4,0-11.401,6.301-11.401,15.101c0,8.801,4,15.101,11.401,15.101c7.5,0,11.5-6.3,11.5-15.101
		C349.561,53.365,345.561,47.064,338.061,47.064z"/>
	<path fill="#FFFFFF" d="M410.661,85.367c-3.7,2.8-8.5,4.7-14.801,4.7c-6.8,0-12.101-2.1-15.201-6.701c-2.2-3.2-3.1-6.9-3.1-12.301
		V47.064h-8.4V35.464h8.4V22.263h15.401v13.201h15.201v11.601H392.96v24.102c0,4.101,2.2,5.601,5.5,5.601c2.7,0,4.9-1.1,6.5-2.4
		L410.661,85.367z"/>
	<path fill="#FFFFFF" d="M415.258,88.867V17.463h15.401v23.801c3.2-4.1,8.7-7,15.301-7c11.4,0,17.601,8.401,17.601,19.102v35.502
		h-15.4V56.865c0-4.6-1.5-9-7.701-9c-5.5,0-9.8,3.7-9.8,10.601v30.402H415.258z"/>
	<path fill="#FFFFFF" d="M473.357,28.863v-11.4h15.301v11.4H473.357z M473.357,88.867V35.464h15.301v53.403H473.357z"/>
	<path fill="#FFFFFF" d="M498.556,88.867V35.464h15.4v5.8c3.2-4.1,8.701-7,15.301-7c11.401,0,17.602,8.401,17.602,19.102v35.502
		h-15.401V56.865c0-4.6-1.5-9-7.7-9c-5.5,0-9.801,3.7-9.801,10.601v30.402H498.556z"/>
	<path fill="#FFFFFF" d="M591.657,79.066c-3.301,4.5-9.101,7-15.701,7c-14.101,0-23.701-11.301-23.701-25.801
		c0-14.501,9.7-26.002,23.801-26.002c6.601,0,12.301,2.5,15.602,7.201v-6h15.4v43.103c0,8.201-1.3,14.901-6,20.201
		c-5.9,6.601-15.101,8.501-23.802,8.501c-9.4,0-17.301-2.2-23.901-6.501l6.301-11.5c3.7,3,10.301,5.201,17.101,5.201
		c8.601,0,14.901-3.3,14.901-12.101V79.066z M579.856,46.865c-7.501,0-11.4,5.7-11.4,13.201c0,7.601,3.899,13.501,11.4,13.501
		c7.5,0,11.801-5.9,11.801-13.501C591.657,52.765,587.557,46.865,579.856,46.865z"/>
</g>
<g>
	<path fill="#FFFFFF" d="M288.662,168.867v-32.102c0-4.501-1.3-8.901-7.4-8.901c-5.4,0-9.101,3.601-9.101,10.401v30.602h-15.4
		v-53.403h15.4v5.7c3.301-4.4,8.701-6.9,14.701-6.9c7.2,0,12.2,3.5,14.501,8.801c4.2-6.101,10.5-8.801,17.001-8.801
		c11.601,0,17.501,8.301,17.501,18.901v35.702h-15.301v-32.102c0-4.501-1.4-8.901-7.501-8.901c-5.3,0-9.101,3.601-9.101,10.401
		v30.602H288.662z"/>
	<path fill="#FFFFFF" d="M398.563,155.666c0,2.4,0.9,3.301,2.7,3.301c1.2,0,2.1-0.2,2.7-0.7l1.6,9.601c-2.1,1.3-5.8,1.8-8.2,1.8
		c-5.2,0-10.4-1.6-12.9-7.4c-4.2,5.601-10.201,7.801-17.302,7.801c-15.601,0-24.602-12.101-24.602-27.901
		c0-15.901,9.301-27.902,24.302-27.902c6.501,0,12.001,2.4,16.301,7.301v-6.101h15.401V155.666z M370.762,127.465
		c-8.2,0-12.101,6.8-12.101,14.801c0,8,3.9,14.601,12.101,14.601c8.301,0,12.4-6.601,12.4-14.601
		C383.162,134.165,378.962,127.465,370.762,127.465z"/>
	<path fill="#FFFFFF" d="M448.461,159.066c-3.301,4.5-9.101,7.001-15.701,7.001c-14.101,0-23.701-11.301-23.701-25.802
		s9.7-26.002,23.801-26.002c6.601,0,12.301,2.5,15.602,7.2v-6h15.4v43.103c0,8.2-1.3,14.901-6,20.201
		c-5.9,6.601-15.101,8.501-23.802,8.501c-9.4,0-17.301-2.2-23.901-6.501l6.301-11.5c3.7,3,10.301,5.2,17.101,5.2
		c8.601,0,14.901-3.301,14.901-12.101V159.066z M436.66,126.864c-7.501,0-11.4,5.701-11.4,13.201c0,7.601,3.899,13.501,11.4,13.501
		c7.5,0,11.801-5.9,11.801-13.501C448.461,132.765,444.36,126.864,436.66,126.864z"/>
	<path fill="#FFFFFF" d="M473.658,108.863v-11.4h15.301v11.4H473.658z M473.658,168.867v-53.403h15.301v53.403H473.658z"/>
	<path fill="#FFFFFF" d="M536.158,134.365c-2.4-4.4-6.101-6.9-10.9-6.9c-7.601,0-12.001,6.101-12.001,14.601
		c0,8.9,4.601,14.801,12.301,14.801c5.301,0,8.9-2.8,11.701-6.7l10.101,8.4c-4.501,6.101-11.701,11.501-23.002,11.501
		c-16.601,0-27.302-11.9-27.302-27.802c0-16.001,10.801-28.002,27.002-28.002c11.9,0,19.301,6.601,23.102,13.201L536.158,134.365z"
		/>
	<path fill="#FFFFFF" d="M607.459,155.666c0,2.4,0.9,3.301,2.7,3.301c1.2,0,2.1-0.2,2.7-0.7l1.6,9.601c-2.1,1.3-5.8,1.8-8.2,1.8
		c-5.2,0-10.4-1.6-12.9-7.4c-4.2,5.601-10.201,7.801-17.302,7.801c-15.601,0-24.602-12.101-24.602-27.901
		c0-15.901,9.301-27.902,24.302-27.902c6.501,0,12.001,2.4,16.301,7.301v-6.101h15.401V155.666z M579.657,127.465
		c-8.2,0-12.101,6.8-12.101,14.801c0,8,3.9,14.601,12.101,14.601c8.301,0,12.4-6.601,12.4-14.601
		C592.058,134.165,587.857,127.465,579.657,127.465z"/>
	<path fill="#FFFFFF" d="M618.654,97.463h15.301v55.804c0,3.7,1.8,4.5,4,4.5c2.001,0,3.801-0.601,4.701-1.101l2.5,11.001
		c-2.601,1.4-6.501,2.2-10.601,2.2c-6.001,0-10.701-1.7-13.401-5.4c-2-2.9-2.5-6-2.5-11.501V97.463z"/>
</g>
<path fill="#FFFFFF" d="M126.675,42.578l-0.015,0.014c10.424,5.717,19.027,14.343,24.707,24.789l0.056-0.055
	C145.715,56.9,137.1,48.285,126.675,42.578z"/>
<g>
	<path fill="#FFFFFF" d="M179.96,46.82l5.557-13.588l-8.706,8.706v0l-25.388,25.389C156.25,76.146,159,86.257,159,97
		c0,34.187-27.812,62-62,62c-10.742,0-20.854-2.75-29.674-7.578l84.097-84.096C145.715,56.9,137.1,48.285,126.675,42.578
		l25.37-25.371C136.396,6.372,117.435,0,97,0C43.515,0,0,43.514,0,97s43.515,97,97,97c53.486,0,97-43.514,97-97
		C194,78.643,188.857,61.472,179.96,46.82z M33.861,135.407l5.938-14.519C36.713,113.532,35,105.464,35,97c0-34.187,27.813-62,62-62
		c10.744,0,20.855,2.75,29.674,7.578L43.87,125.382l0.005,0.012L33.861,135.407z"/>
</g>
<g>
	<path fill="#FFFFFF" d="M32.333,186.426c0,0-6.781-2.377-15.229-10.824c-7.49-7.49-9.52-13.925-9.52-13.925L119.299,49.962
		l24.75,24.749L32.333,186.426z"/>
</g>
<g>
	<path fill="#231F20" d="M1288.273,435.578l-0.015,0.014c10.424,5.717,19.027,14.343,24.707,24.789l0.056-0.055
		C1307.313,449.9,1298.698,441.285,1288.273,435.578z"/>
	<g>
		<path fill="#231F20" d="M1341.559,439.82l5.557-13.588l-8.706,8.705l0,0l-25.388,25.389c4.827,8.819,7.577,18.931,7.577,29.674
			c0,34.187-27.812,62-62,62c-10.742,0-20.854-2.75-29.674-7.578l84.097-84.096c-5.708-10.426-14.323-19.041-24.748-24.748
			l25.37-25.371c-15.649-10.836-34.61-17.207-55.045-17.207c-53.485,0-97,43.514-97,97s43.515,97,97,97c53.486,0,97-43.514,97-97
			C1355.599,471.643,1350.456,454.472,1341.559,439.82z M1195.46,528.407l5.938-14.519c-3.086-7.356-4.799-15.425-4.799-23.889
			c0-34.187,27.813-62,62-62c10.744,0,20.855,2.75,29.674,7.578l-82.804,82.804l0.005,0.012L1195.46,528.407z"/>
	</g>
	<g>
		<path fill="#231F20" d="M1193.933,579.426c0,0-6.781-2.377-15.229-10.824c-7.489-7.49-9.521-13.925-9.521-13.925l111.715-111.715
			l24.75,24.749L1193.933,579.426z"/>
	</g>
	<g>
		<path fill="none" d="M1288.28,435.597l0.014-0.015c-8.818-4.827-18.93-7.577-29.674-7.577c-34.188,0-62,27.812-62,62
			c0,34.187,27.812,62,62,62s62-27.813,62-62c0-10.743-2.75-20.855-7.578-29.674l-0.055,0.055
			C1307.308,449.939,1298.704,441.313,1288.28,435.597z"/>
		<path fill="#FFFFFF" d="M1288.294,435.582l-0.014,0.015c10.424,5.717,19.027,14.343,24.707,24.789l0.055-0.055
			C1307.335,449.905,1298.72,441.29,1288.294,435.582z"/>
		<path fill="#FFFFFF" d="M1313.042,460.331l25.389-25.389c-6.688-9.665-15.084-18.06-24.748-24.748l-25.389,25.388
			C1298.72,441.29,1307.335,449.905,1313.042,460.331z"/>
	</g>
</g>
<text transform="matrix(1 0 0 1 1187.9404 363.3809)" font-family="'MyriadPro-Regular'" font-size="18">N</text>
<text transform="matrix(1 0 0 1 1199.7842 363.3809)" font-family="'MyriadPro-Regular'" font-size="18">o</text>
<text transform="matrix(1 0 0 1 1209.666 363.3809)" font-family="'MyriadPro-Regular'" font-size="18"> </text>
<text transform="matrix(1 0 0 1 1213.4824 363.3809)" font-family="'MyriadPro-Regular'" font-size="18">N</text>
<text transform="matrix(1 0 0 1 1225.3262 363.3809)" font-family="'MyriadPro-Regular'" font-size="18">e</text>
<text transform="matrix(1 0 0 1 1234.3438 363.3809)" font-family="'MyriadPro-Regular'" font-size="18">g</text>
<text transform="matrix(1 0 0 1 1244.4053 363.3809)" font-family="'MyriadPro-Regular'" font-size="18">a</text>
<text transform="matrix(1 0 0 1 1253.0098 363.3809)" font-family="'MyriadPro-Regular'" font-size="18">t</text>
<text transform="matrix(1 0 0 1 1258.9678 363.3809)" font-family="'MyriadPro-Regular'" font-size="18">i</text>
<text transform="matrix(1 0 0 1 1263.1787 363.3809)" font-family="'MyriadPro-Regular'" font-size="18">v</text>
<text transform="matrix(1 0 0 1 1271.6572 363.3809)" font-family="'MyriadPro-Regular'" font-size="18">e</text>
<text transform="matrix(1 0 0 1 1280.6748 363.3809)" font-family="'MyriadPro-Regular'" font-size="18"> </text>
<text transform="matrix(1 0 0 1 1284.4912 363.3809)" font-family="'MyriadPro-Regular'" font-size="18">S</text>
<text transform="matrix(1 0 0 1 1293.3643 363.3809)" font-family="'MyriadPro-Regular'" font-size="18">p</text>
<text transform="matrix(1 0 0 1 1303.6064 363.3809)" font-family="'MyriadPro-Regular'" font-size="18">a</text>
<text transform="matrix(1 0 0 1 1312.2822 363.3809)" font-family="'MyriadPro-Regular'" font-size="18">c</text>
<text transform="matrix(1 0 0 1 1320.2383 363.3809)" font-family="'MyriadPro-Regular'" font-size="18">e</text>
</svg>
