<?xml version="1.0" encoding="utf-8"?>
<!-- Generator: Adobe Illustrator 16.2.1, SVG Export Plug-In . SVG Version: 6.00 Build 0)  -->
<!DOCTYPE svg PUBLIC "-//W3C//DTD SVG 1.1//EN" "http://www.w3.org/Graphics/SVG/1.1/DTD/svg11.dtd">
<svg version="1.1" id="Layer_1" xmlns="http://www.w3.org/2000/svg" xmlns:xlink="http://www.w3.org/1999/xlink" x="0px" y="0px"
	 width="133.141px" height="38.207px" viewBox="-299.5 300.5 133.141 38.207" enable-background="new -299.5 300.5 133.141 38.207"
	 xml:space="preserve">
<g>
	<path fill="#FFFFFF" d="M-166.358,334.877c0,2.115-1.715,3.83-3.834,3.83h-125.47c-2.119,0-3.839-1.715-3.839-3.83v-30.543
		c0-2.115,1.72-3.834,3.839-3.834h125.468c2.121,0,3.835,1.719,3.835,3.834L-166.358,334.877L-166.358,334.877z"/>
	<path fill="#64A4C1" d="M-166.358,334.877c0,2.115-1.715,3.83-3.834,3.83h-125.47c-2.119,0-3.839-1.715-3.839-3.83v-30.543
		c0-2.115,1.72-3.834,3.839-3.834h125.468c2.121,0,3.835,1.719,3.835,3.834L-166.358,334.877L-166.358,334.877z"/>
	<path fill="#FFFFFF" d="M-270.262,319.393c-0.029-3.223,2.639-4.789,2.761-4.863c-1.511-2.203-3.853-2.504-4.676-2.527
		c-1.967-0.207-3.875,1.176-4.877,1.176c-1.022,0-2.565-1.156-4.229-1.123c-2.14,0.033-4.142,1.273-5.239,3.197
		c-2.267,3.922-0.576,9.688,1.595,12.857c1.086,1.555,2.354,3.287,4.016,3.227c1.625-0.066,2.232-1.035,4.193-1.035
		c1.943,0,2.513,1.035,4.207,0.996c1.744-0.027,2.842-1.561,3.89-3.127c1.255-1.779,1.759-3.533,1.779-3.623
		C-266.883,324.534-270.228,323.256-270.262,319.393z"/>
	<path fill="#FFFFFF" d="M-273.463,309.917c0.874-1.094,1.472-2.58,1.306-4.09c-1.265,0.057-2.847,0.875-3.758,1.945
		c-0.806,0.941-1.525,2.484-1.34,3.938C-275.834,311.815-274.375,310.993-273.463,309.917z"/>
	<g>
		<path fill="#FFFFFF" d="M-246.725,331.114h-2.271l-1.244-3.91h-4.323l-1.186,3.91h-2.211l4.285-13.309h2.646L-246.725,331.114z
			 M-250.616,325.565l-1.125-3.475c-0.119-0.355-0.343-1.191-0.671-2.508h-0.04c-0.132,0.566-0.343,1.402-0.632,2.508l-1.105,3.475
			H-250.616z"/>
		<path fill="#FFFFFF" d="M-235.727,326.198c0,1.631-0.443,2.922-1.33,3.869c-0.794,0.842-1.781,1.264-2.958,1.264
			c-1.271,0-2.186-0.453-2.74-1.361v5.035h-2.132v-10.332c0-1.025-0.027-2.076-0.079-3.154h1.875l0.119,1.521h0.04
			c0.711-1.146,1.79-1.721,3.237-1.721c1.133,0,2.077,0.447,2.833,1.342C-236.106,323.559-235.727,324.737-235.727,326.198z
			 M-237.899,326.276c0-0.934-0.211-1.705-0.633-2.311c-0.461-0.631-1.08-0.947-1.855-0.947c-0.526,0-1.004,0.176-1.432,0.523
			c-0.428,0.35-0.708,0.807-0.839,1.373c-0.065,0.264-0.099,0.479-0.099,0.648v1.602c0,0.695,0.214,1.285,0.642,1.768
			c0.429,0.479,0.984,0.721,1.668,0.721c0.804,0,1.429-0.311,1.875-0.928C-238.124,328.106-237.899,327.29-237.899,326.276z"/>
		<path fill="#FFFFFF" d="M-224.69,326.198c0,1.631-0.443,2.922-1.33,3.869c-0.795,0.842-1.781,1.264-2.959,1.264
			c-1.271,0-2.186-0.453-2.74-1.361v5.035h-2.132v-10.332c0-1.025-0.027-2.076-0.079-3.154h1.875l0.119,1.521h0.04
			c0.71-1.146,1.789-1.721,3.237-1.721c1.131,0,2.076,0.447,2.834,1.342C-225.071,323.559-224.69,324.737-224.69,326.198z
			 M-226.864,326.276c0-0.934-0.211-1.705-0.633-2.311c-0.461-0.631-1.078-0.947-1.854-0.947c-0.526,0-1.004,0.176-1.434,0.523
			c-0.428,0.35-0.707,0.807-0.838,1.373c-0.064,0.264-0.1,0.479-0.1,0.648v1.602c0,0.695,0.215,1.285,0.641,1.768
			c0.428,0.479,0.984,0.721,1.67,0.721c0.805,0,1.43-0.311,1.875-0.928C-227.088,328.106-226.864,327.29-226.864,326.276z"/>
		<path fill="#FFFFFF" d="M-212.35,327.381c0,1.133-0.396,2.053-1.184,2.764c-0.865,0.777-2.074,1.166-3.625,1.166
			c-1.432,0-2.58-0.277-3.445-0.83l0.492-1.777c0.936,0.555,1.963,0.83,3.08,0.83c0.805,0,1.43-0.182,1.875-0.543
			c0.447-0.361,0.674-0.846,0.674-1.449c0-0.541-0.188-0.994-0.555-1.363c-0.369-0.367-0.979-0.711-1.836-1.025
			c-2.33-0.869-3.496-2.141-3.496-3.812c0-1.092,0.412-1.986,1.234-2.684c0.822-0.699,1.912-1.047,3.268-1.047
			c1.211,0,2.221,0.211,3.021,0.631l-0.535,1.738c-0.754-0.408-1.605-0.613-2.557-0.613c-0.752,0-1.343,0.186-1.765,0.555
			c-0.354,0.328-0.535,0.729-0.535,1.205c0,0.525,0.205,0.961,0.613,1.303c0.354,0.314,1,0.658,1.935,1.025
			c1.146,0.463,1.987,1,2.526,1.619C-212.621,325.69-212.35,326.461-212.35,327.381z"/>
		<path fill="#FFFFFF" d="M-205.284,323.118h-2.35v4.658c0,1.186,0.414,1.777,1.244,1.777c0.381,0,0.697-0.033,0.947-0.1
			l0.059,1.619c-0.42,0.156-0.973,0.236-1.658,0.236c-0.842,0-1.5-0.258-1.975-0.771c-0.474-0.514-0.711-1.375-0.711-2.588v-4.836
			h-1.4v-1.6h1.4v-1.758l2.094-0.631v2.389h2.35V323.118z"/>
		<path fill="#FFFFFF" d="M-194.702,326.237c0,1.475-0.422,2.686-1.264,3.633c-0.881,0.975-2.053,1.461-3.514,1.461
			c-1.41,0-2.531-0.467-3.367-1.4c-0.836-0.936-1.254-2.113-1.254-3.533c0-1.488,0.432-2.705,1.293-3.652
			c0.862-0.947,2.024-1.422,3.485-1.422c1.408,0,2.539,0.469,3.396,1.402C-195.108,323.631-194.702,324.801-194.702,326.237z
			 M-196.912,326.286c0-0.879-0.189-1.633-0.57-2.264c-0.447-0.762-1.088-1.143-1.916-1.143c-0.854,0-1.51,0.381-1.955,1.143
			c-0.383,0.631-0.572,1.398-0.572,2.303c0,0.881,0.189,1.637,0.572,2.266c0.461,0.762,1.104,1.143,1.937,1.143
			c0.815,0,1.454-0.389,1.916-1.162C-197.108,327.926-196.912,327.167-196.912,326.286z"/>
		<path fill="#FFFFFF" d="M-187.768,323.393c-0.211-0.039-0.438-0.059-0.672-0.059c-0.75,0-1.33,0.281-1.738,0.85
			c-0.354,0.5-0.532,1.131-0.532,1.895v5.035h-2.132v-6.574c0-1.105-0.021-2.113-0.062-3.021h1.857l0.078,1.836h0.059
			c0.227-0.631,0.58-1.139,1.066-1.52c0.475-0.344,0.988-0.516,1.541-0.516c0.197,0,0.375,0.016,0.533,0.039L-187.768,323.393
			L-187.768,323.393z"/>
		<path fill="#FFFFFF" d="M-178.233,325.862c0,0.381-0.025,0.703-0.078,0.967h-6.396c0.024,0.947,0.334,1.674,0.928,2.174
			c0.539,0.445,1.236,0.67,2.093,0.67c0.946,0,1.811-0.15,2.588-0.453l0.334,1.479c-0.908,0.396-1.98,0.594-3.217,0.594
			c-1.488,0-2.656-0.438-3.507-1.312c-0.848-0.875-1.272-2.051-1.272-3.523c0-1.445,0.395-2.65,1.186-3.611
			c0.828-1.027,1.947-1.539,3.355-1.539c1.383,0,2.43,0.512,3.141,1.539C-178.516,323.657-178.233,324.665-178.233,325.862z
			 M-180.266,325.309c0.015-0.633-0.125-1.178-0.414-1.639c-0.369-0.596-0.938-0.891-1.698-0.891c-0.697,0-1.265,0.289-1.697,0.869
			c-0.354,0.461-0.565,1.016-0.631,1.658L-180.266,325.309L-180.266,325.309z"/>
	</g>
	<g>
		<g>
			<path fill="#FFFFFF" d="M-255.179,313.102c-0.593,0-1.106-0.029-1.533-0.078v-6.436c0.553-0.086,1.154-0.135,1.805-0.135
				c2.445,0,3.571,1.203,3.571,3.164C-251.337,311.879-252.667,313.102-255.179,313.102z M-254.822,307.278
				c-0.33,0-0.61,0.02-0.844,0.068v4.891c0.126,0.02,0.368,0.029,0.708,0.029c1.603,0,2.514-0.912,2.514-2.619
				C-252.444,308.124-253.268,307.278-254.822,307.278z"/>
			<path fill="#FFFFFF" d="M-247.828,313.151c-1.378,0-2.271-1.029-2.271-2.426c0-1.457,0.912-2.494,2.349-2.494
				c1.358,0,2.271,0.979,2.271,2.416C-245.478,312.122-246.42,313.151-247.828,313.151z M-247.788,308.997
				c-0.757,0-1.242,0.707-1.242,1.697c0,0.971,0.495,1.68,1.232,1.68s1.232-0.758,1.232-1.699
				C-246.565,309.713-247.051,308.997-247.788,308.997z"/>
			<path fill="#FFFFFF" d="M-237.621,308.327l-1.475,4.717h-0.961l-0.611-2.049c-0.155-0.514-0.281-1.018-0.379-1.523h-0.02
				c-0.077,0.516-0.224,1.029-0.379,1.523l-0.649,2.049h-0.971l-1.389-4.717h1.077l0.534,2.242c0.126,0.535,0.231,1.039,0.32,1.514
				h0.02c0.077-0.396,0.203-0.893,0.388-1.504l0.67-2.25h0.854l0.641,2.203c0.155,0.533,0.281,1.057,0.379,1.553h0.028
				c0.068-0.484,0.175-1,0.32-1.553l0.573-2.203L-237.621,308.327L-237.621,308.327z"/>
			<path fill="#FFFFFF" d="M-232.19,313.043h-1.049v-2.709c0-0.834-0.319-1.252-0.95-1.252c-0.621,0-1.049,0.535-1.049,1.156v2.805
				h-1.048v-3.369c0-0.416-0.01-0.863-0.039-1.348h0.922l0.05,0.727h0.028c0.282-0.504,0.854-0.822,1.495-0.822
				c0.99,0,1.641,0.756,1.641,1.988L-232.19,313.043L-232.19,313.043z"/>
			<path fill="#FFFFFF" d="M-229.301,313.043h-1.049v-6.881h1.049V313.043z"/>
			<path fill="#FFFFFF" d="M-225.479,313.151c-1.377,0-2.271-1.029-2.271-2.426c0-1.457,0.912-2.494,2.348-2.494
				c1.359,0,2.271,0.979,2.271,2.416C-223.131,312.122-224.073,313.151-225.479,313.151z M-225.44,308.997
				c-0.758,0-1.242,0.707-1.242,1.697c0,0.971,0.496,1.68,1.23,1.68c0.738,0,1.232-0.758,1.232-1.699
				C-224.219,309.713-224.703,308.997-225.44,308.997z"/>
			<path fill="#FFFFFF" d="M-219,313.043l-0.076-0.543h-0.027c-0.32,0.438-0.787,0.65-1.379,0.65c-0.846,0-1.445-0.592-1.445-1.389
				c0-1.164,1.009-1.766,2.756-1.766v-0.088c0-0.621-0.329-0.932-0.979-0.932c-0.466,0-0.873,0.117-1.232,0.35l-0.213-0.689
				c0.436-0.271,0.979-0.406,1.619-0.406c1.231,0,1.854,0.648,1.854,1.949v1.738c0,0.477,0.021,0.844,0.068,1.125H-219L-219,313.043
				z M-219.143,310.694c-1.164,0-1.748,0.283-1.748,0.951c0,0.496,0.301,0.736,0.719,0.736c0.533,0,1.029-0.406,1.029-0.959V310.694
				z"/>
			<path fill="#FFFFFF" d="M-213.034,313.043l-0.049-0.758h-0.029c-0.301,0.572-0.807,0.865-1.514,0.865
				c-1.137,0-1.979-1-1.979-2.408c0-1.475,0.873-2.514,2.064-2.514c0.631,0,1.078,0.213,1.33,0.641h0.021v-2.707h1.049v5.609
				c0,0.457,0.011,0.883,0.039,1.271H-213.034z M-213.188,310.268c0-0.66-0.438-1.223-1.104-1.223c-0.777,0-1.252,0.689-1.252,1.658
				c0,0.951,0.493,1.602,1.231,1.602c0.658,0,1.125-0.572,1.125-1.252V310.268z"/>
			<path fill="#FFFFFF" d="M-205.489,313.151c-1.377,0-2.27-1.029-2.27-2.426c0-1.457,0.912-2.494,2.348-2.494
				c1.359,0,2.271,0.979,2.271,2.416C-203.138,312.122-204.08,313.151-205.489,313.151z M-205.45,308.997
				c-0.756,0-1.24,0.707-1.24,1.697c0,0.971,0.494,1.68,1.23,1.68c0.738,0,1.232-0.758,1.232-1.699
				C-204.225,309.713-204.711,308.997-205.45,308.997z"/>
			<path fill="#FFFFFF" d="M-197.504,313.043h-1.049v-2.709c0-0.834-0.32-1.252-0.951-1.252c-0.621,0-1.047,0.535-1.047,1.156v2.805
				h-1.049v-3.369c0-0.416-0.011-0.863-0.039-1.348h0.922l0.049,0.727h0.029c0.281-0.504,0.854-0.824,1.494-0.824
				c0.989,0,1.641,0.758,1.641,1.988V313.043z"/>
			<path fill="#FFFFFF" d="M-190.453,309.114h-1.152v2.289c0,0.584,0.201,0.875,0.609,0.875c0.186,0,0.34-0.021,0.465-0.049
				l0.029,0.795c-0.203,0.078-0.475,0.117-0.812,0.117c-0.826,0-1.32-0.455-1.32-1.65v-2.377h-0.688v-0.787h0.688v-0.863
				l1.029-0.311v1.174h1.152V309.114z"/>
			<path fill="#FFFFFF" d="M-184.905,313.043h-1.047v-2.688c0-0.846-0.318-1.271-0.951-1.271c-0.543,0-1.049,0.369-1.049,1.115
				v2.844h-1.047v-6.881h1.047v2.834h0.021c0.33-0.514,0.808-0.768,1.418-0.768c0.998,0,1.607,0.775,1.607,2.01V313.043z"/>
			<path fill="#FFFFFF" d="M-179.22,310.938h-3.146c0.021,0.893,0.611,1.396,1.486,1.396c0.465,0,0.893-0.078,1.271-0.223
				l0.162,0.727c-0.445,0.195-0.971,0.291-1.582,0.291c-1.475,0-2.348-0.932-2.348-2.377s0.895-2.533,2.23-2.533
				c1.205,0,1.961,0.895,1.961,2.242C-179.181,310.647-179.19,310.811-179.22,310.938z M-180.181,310.19
				c0-0.729-0.367-1.242-1.037-1.242c-0.603,0-1.078,0.523-1.146,1.242H-180.181z"/>
		</g>
	</g>
</g>
</svg>
